# xmcd
#
# Track frame offsets:
#	150
#	14312
#	26915
#	37435
#	46590
#	61842
#	95360
#	109817
#	121315
#	139065
#	150775
#	163972
#	175915
#	188172
#	201285
#
# Disc length: 2851 seconds
#
# Revision: 2
# Processed by: cddbd v1.5.2PL0 Copyright (c) Steve Scherf et al.
# Submitted via: audiograbber 1.83.01
#
DISCID=c80b210f
DTITLE=Various Artist - 75 Years of the Grand Ole Opry, vol 1
DYEAR=2000
DGENRE=Country
TTITLE0=Vince Gill and Alison Krauss - High Lonesome Road
TTITLE1=Trisha Yearwood - Wrong Side of Memphis
TTITLE2=Bill Monroe - Uncle Pen
TTITLE3=Patsy Cline - Walkin' After Midnight
TTITLE4=John Conlee - Rose Colered Glassses
TTITLE5=Jerry Clower - Coon Huntin' Story
TTITLE6=Red Foley - Peace in the Valley
TTITLE7=Kitty Wells - It Wasn't God Who Made Honky Tonk Angels
TTITLE8=Emmylou Harris - Slow Surprise
TTITLE9=Lefty Frizzell - I Never Go Aroung Mirrors
TTITLE10=Lee Ann Womack - Lord I Hope This Day Is Good
TTITLE11=Ernest Tubb - Waltz Across Texas
TTITLE12=Loretta Lynn - Blue Kentucky Girl
TTITLE13=Jack Greene - Statue of A Fool
TTITLE14=Hank Williams - I'm So Lonesome I Could Cry
EXTD=
EXTT0=
EXTT1=
EXTT2=
EXTT3=
EXTT4=
EXTT5=
EXTT6=
EXTT7=
EXTT8=
EXTT9=
EXTT10=
EXTT11=
EXTT12=
EXTT13=
EXTT14=
PLAYORDER=
